<svg version="1.1" viewBox="0 0 197 132" xmlns="http://www.w3.org/2000/svg">
	<defs id="SvgjsDefs1022"></defs>
	<g id="SvgjsG1023" featurekey="root" fill="#ffffff" transform="matrix(1,0,0,1,0,0)"></g><g id="SvgjsG1024" featurekey="symbol1" fill="#303b4a" transform="matrix(0.13725489374767266,0,0,0.13725489374767266,62.862745106252326,-4.157645631220461)"><title>Computer-columns-interface-monitor-desktop_45</title><path d="M236.08,301.81V267.34h39.84v34.47a10,10,0,0,0,10,10h38.81a10,10,0,0,0,10-10V233.33l9.69,7.85A10,10,0,1,0,357,225.65l-25.93-21-68.71-56.89a10,10,0,0,0-12.76,0l-68.71,56.89-25.93,21a10,10,0,0,0,12.6,15.53l9.69-7.85v68.48a10,10,0,0,0,10,10h38.81A10,10,0,0,0,236.08,301.81Z"></path><path d="M501,369.64h-8.87V99.48a32.8,32.8,0,0,0-32.76-32.76H52.63A32.8,32.8,0,0,0,19.87,99.48V369.64H11a10,10,0,0,0-10,10v22.68a43,43,0,0,0,43,43H468a43,43,0,0,0,43-43V379.64A10,10,0,0,0,501,369.64ZM39.87,99.48A12.77,12.77,0,0,1,52.63,86.72H459.37a12.77,12.77,0,0,1,12.76,12.76V369.64H39.87ZM491,402.32a23,23,0,0,1-23,23H44a23,23,0,0,1-23-23V389.64H198.74v2.94a19.13,19.13,0,0,0,19.11,19.11h76.3a19.13,19.13,0,0,0,19.11-19.11v-2.94H491Z"></path></g><g id="SvgjsG1025" featurekey="text1" fill="#303b4a" transform="matrix(3.31491670788717,0,0,3.31491670788717,5.000001852354058,33.85083924383015)"><path d="M0.08 10 l1.66 0 c0.1 0.08 1.88 2.66 5.34 7.78 l2.76 4 l0 -11.7 c0 -0.06 0.04 -0.08 0.08 -0.08 l1.32 0 c0.06 0 0.08 0.04 0.08 0.08 l0 13.84 c0 0.06 -0.02 0.08 -0.08 0.08 l-1.66 0 c-0.26 -0.3 -2.96 -4.22 -8.06 -11.78 l-0.04 0 l0 11.7 c0 0.06 -0.02 0.08 -0.08 0.08 l-1.32 0 c-0.06 0 -0.08 -0.02 -0.08 -0.08 l0 -13.84 c0 -0.06 0.04 -0.08 0.08 -0.08 z M17.28 14 l0.24 0 c1.32 0 2.52 0.5 3.62 1.52 l0 -1.46 c0 -0.04 0.04 -0.06 0.08 -0.06 l1.28 0 c0.04 0 0.06 0.02 0.06 0.06 l0 9.88 c0 0.04 -0.02 0.06 -0.06 0.06 l-1.28 0 c-0.04 0 -0.08 -0.02 -0.08 -0.06 l0 -1.46 c-1.1 1.02 -2.22 1.52 -3.4 1.52 l-0.7 0 c-1.26 0 -2.48 -0.6 -3.66 -1.84 c-0.74 -0.98 -1.1 -2 -1.1 -3.06 l0 -0.28 c0 -1.68 0.86 -3.08 2.62 -4.22 c0.82 -0.4 1.62 -0.6 2.38 -0.6 z M13.700000000000001 18.86 l0 0.32 c0 1.2 0.6 2.2 1.8 3.04 c0.64 0.34 1.22 0.5 1.74 0.5 l0.36 0 c1.1 0 2.06 -0.56 2.9 -1.64 c0.42 -0.64 0.64 -1.34 0.64 -2.14 c0 -1.42 -0.74 -2.52 -2.2 -3.34 c-0.54 -0.2 -1.04 -0.32 -1.52 -0.32 c-1.62 0 -2.8 0.84 -3.54 2.52 c-0.12 0.42 -0.18 0.78 -0.18 1.06 z M16.86 13.56 l0 -0.08 c0.26 -0.46 0.52 -0.92 0.76 -1.36 l1.44 0 c-0.5 0.88 -0.76 1.36 -0.82 1.44 l-1.38 0 z M23.520000000000003 14 l1.48 0 l0 9.58 c0 1.52 -0.9 2.82 -2.72 3.86 c-0.9 0.44 -1.82 0.66 -2.8 0.66 l-0.12 0 l0 -1.6 c1.58 0 2.84 -0.64 3.74 -1.94 c0.28 -0.5 0.42 -1.06 0.42 -1.68 l0 -8.88 z M24.940000000000005 12.12 l0 1.44 l-1.42 0 l0 -1.44 l1.42 0 z M30.960000000000004 14 l0.24 0 c1.9 0 3.42 0.92 4.52 2.76 c0.36 0.72 0.52 1.48 0.52 2.3 c0 0.42 -0.02 0.66 -0.1 0.66 l-8.68 0 l0 0.02 c0.06 0.58 0.4 1.24 1.02 1.96 c0.82 0.68 1.62 1.02 2.44 1.02 l0.36 0 c0.9 0 1.76 -0.4 2.6 -1.2 l1.58 0 c0.04 0 0.08 0.02 0.08 0.06 c-1.18 1.6 -2.56 2.42 -4.12 2.42 l-0.7 0 c-1.26 0 -2.48 -0.6 -3.66 -1.84 c-0.74 -0.98 -1.1 -2 -1.1 -3.06 l0 -0.28 c0 -1.68 0.86 -3.08 2.62 -4.22 c0.82 -0.4 1.62 -0.6 2.38 -0.6 z M27.460000000000004 18.28 l7.3 0 c-0.04 -0.5 -0.38 -1.12 -1 -1.9 c-0.8 -0.72 -1.7 -1.1 -2.66 -1.1 c-1.38 0 -2.46 0.64 -3.26 1.92 c-0.26 0.52 -0.38 0.88 -0.38 1.08 z M37.28000000000001 14 l1.28 0 c0.04 0 0.08 0.02 0.08 0.06 l0 1.46 c1.08 -1.02 2.26 -1.52 3.58 -1.52 l0.24 0 c1.7 0 3.12 0.76 4.24 2.3 c0.04 0.06 0.06 0.12 0.06 0.16 c1.16 -1.64 2.6 -2.46 4.32 -2.46 l0.26 0 c1.7 0 3.1 0.76 4.22 2.3 c0.52 0.84 0.78 1.62 0.78 2.34 l0 5.3 c0 0.04 -0.04 0.06 -0.08 0.06 l-1.24 0 c-0.04 0 -0.06 -0.02 -0.06 -0.06 l0 -4.8 c0 -1.68 -0.78 -2.88 -2.34 -3.58 c-0.42 -0.18 -0.9 -0.28 -1.46 -0.28 c-1.38 0 -2.48 0.68 -3.3 2.08 c-0.24 0.54 -0.36 1.04 -0.36 1.46 l0 5.12 c0 0.04 -0.02 0.06 -0.06 0.06 l-1.28 0 c-0.04 0 -0.08 -0.02 -0.08 -0.06 l0 -4.94 c0 -1.56 -0.78 -2.72 -2.36 -3.48 c-0.48 -0.16 -0.94 -0.24 -1.36 -0.24 c-1.62 0 -2.8 0.84 -3.54 2.52 c-0.12 0.42 -0.18 0.78 -0.18 1.06 l0 5.08 c0 0.04 -0.04 0.06 -0.08 0.06 l-1.28 0 c-0.04 0 -0.06 -0.02 -0.06 -0.06 l0 -9.88 c0 -0.04 0.02 -0.06 0.06 -0.06 z"></path></g>
</svg>
